# xmcd
#
# Track frame offsets:
#	150
#	12702
#	22302
#	30795
#	40228
#	49336
#	60197
#	70406
#	79320
#	91892
#	103031
#
# Disc length: 1533 seconds
# Revision: 0
# Processed by: cddbd v1.5.2PL0 Copyright (c) Steve Scherf et al.
# Submitted via: dBpowerAMP V12.0
#
DISCID=8c05fb0b
DTITLE=Glen Campbell - Gentle On My Mind
DYEAR=1900
DGENRE=Country
TTITLE0=Gentle On My Mind
TTITLE1=Catch The Wind
TTITLE2=It's Over
TTITLE3=Bowling Green
TTITLE4=Just Another Man
TTITLE5=You're My World
TTITLE6=The World I Used To Know
TTITLE7=Without Her
TTITLE8=Mary In The Morning
TTITLE9=Love Me As Though There Were N
TTITLE10=Cryin'
EXTD=
EXTT0=
EXTT1=
EXTT2=
EXTT3=
EXTT4=
EXTT5=
EXTT6=
EXTT7=
EXTT8=
EXTT9=
EXTT10=
PLAYORDER=
